HIERARCHY
ROOT Hips
{
	OFFSET 0.000000 89.005402 0.000000
	CHANNELS 6 Xposition Yposition Zposition Xrotation Yrotation Zrotation
	JOINT Spine
	{
		OFFSET 0.116900 10.681000 0.373400
		CHANNELS 3 Xrotation Yrotation Zrotation
		JOINT Spine1
		{
			OFFSET 0.000000 13.840401 0.053500
			CHANNELS 3 Xrotation Yrotation Zrotation
			JOINT Spine2
			{
				OFFSET 0.000000 14.712700 -0.366200
				CHANNELS 3 Xrotation Yrotation Zrotation
				JOINT Neck
				{
					OFFSET 0.000000 35.415497 -3.314200
					CHANNELS 3 Xrotation Yrotation Zrotation
					JOINT Head
					{
						OFFSET 0.000000 16.899200 1.218300
						CHANNELS 3 Xrotation Yrotation Zrotation
						JOINT HeadTop_End
						{
							OFFSET 0.000000 22.206207 2.192500
							CHANNELS 3 Xrotation Yrotation Zrotation
							End Site
							{
								OFFSET 0.000000 22.314178 0.000000
							}
						}
					}
				}
				JOINT LeftShoulder
				{
					OFFSET 12.896400 26.716293 -4.548400
					CHANNELS 3 Xrotation Yrotation Zrotation
					JOINT LeftArm
					{
						OFFSET 19.027000 -4.857010 -1.718400
						CHANNELS 3 Xrotation Yrotation Zrotation
						JOINT LeftForeArm
						{
							OFFSET 24.179897 0.000000 0.000000
							CHANNELS 3 Xrotation Yrotation Zrotation
							JOINT LeftHand
							{
								OFFSET 27.156403 0.000000 0.000000
								CHANNELS 3 Xrotation Yrotation Zrotation
								JOINT LeftHandIndex1
								{
									OFFSET 16.441200 0.000000 0.000000
									CHANNELS 3 Xrotation Yrotation Zrotation
									JOINT LeftHandIndex2
									{
										OFFSET 4.821899 0.000000 0.000000
										CHANNELS 3 Xrotation Yrotation Zrotation
										JOINT LeftHandIndex3
										{
											OFFSET 6.386497 0.000000 0.000000
											CHANNELS 3 Xrotation Yrotation Zrotation
											JOINT LeftHandIndex4
											{
												OFFSET 5.188988 0.000000 0.000000
												CHANNELS 3 Xrotation Yrotation Zrotation
												End Site
												{
													OFFSET -0.178703 5.185913 0.000177
												}
											}
										}
									}
								}
								JOINT LeftHandThumb1
								{
									OFFSET 6.534897 -5.032593 5.900300
									CHANNELS 3 Xrotation Yrotation Zrotation
									JOINT LeftHandThumb2
									{
										OFFSET 3.818176 -2.204422 2.204423
										CHANNELS 3 Xrotation Yrotation Zrotation
										JOINT LeftHandThumb3
										{
											OFFSET 3.252098 -1.877594 1.877601
											CHANNELS 3 Xrotation Yrotation Zrotation
											JOINT LeftHandThumb4
											{
												OFFSET 5.251778 -3.032120 3.032117
												CHANNELS 3 Xrotation Yrotation Zrotation
												End Site
												{
													OFFSET 0.000023 6.780014 0.000000
												}
											}
										}
									}
								}
							}
						}
					}
				}
				JOINT RightShoulder
				{
					OFFSET -12.896300 26.716293 -4.548400
					CHANNELS 3 Xrotation Yrotation Zrotation
					JOINT RightArm
					{
						OFFSET -19.027000 -4.857010 -1.718400
						CHANNELS 3 Xrotation Yrotation Zrotation
						JOINT RightForeArm
						{
							OFFSET -24.179897 0.000000 0.000000
							CHANNELS 3 Xrotation Yrotation Zrotation
							JOINT RightHand
							{
								OFFSET -27.156403 0.000000 0.000000
								CHANNELS 3 Xrotation Yrotation Zrotation
								JOINT RightHandThumb1
								{
									OFFSET -6.591202 -4.852203 5.988100
									CHANNELS 3 Xrotation Yrotation Zrotation
									JOINT RightHandThumb2
									{
										OFFSET -3.818176 -2.204422 2.204423
										CHANNELS 3 Xrotation Yrotation Zrotation
										JOINT RightHandThumb3
										{
											OFFSET -3.252098 -1.877594 1.877601
											CHANNELS 3 Xrotation Yrotation Zrotation
											JOINT RightHandThumb4
											{
												OFFSET -5.251778 -3.032120 3.032117
												CHANNELS 3 Xrotation Yrotation Zrotation
												End Site
												{
													OFFSET -0.000023 6.780014 0.000000
												}
											}
										}
									}
								}
								JOINT RightHandIndex1
								{
									OFFSET -16.029404 0.000000 0.000000
									CHANNELS 3 Xrotation Yrotation Zrotation
									JOINT RightHandIndex2
									{
										OFFSET -5.213303 0.000000 0.000000
										CHANNELS 3 Xrotation Yrotation Zrotation
										JOINT RightHandIndex3
										{
											OFFSET -6.386528 0.000000 0.000000
											CHANNELS 3 Xrotation Yrotation Zrotation
											JOINT RightHandIndex4
											{
												OFFSET -5.189026 0.000000 0.000000
												CHANNELS 3 Xrotation Yrotation Zrotation
												End Site
												{
													OFFSET 0.236702 5.183624 0.001972
												}
											}
										}
									}
								}
							}
						}
					}
				}
			}
		}
	}
	JOINT LeftUpLeg
	{
		OFFSET 14.073000 -7.904099 -1.463000
		CHANNELS 3 Xrotation Yrotation Zrotation
		JOINT LeftLeg
		{
			OFFSET -0.109806 -34.073280 4.093200
			CHANNELS 3 Xrotation Yrotation Zrotation
			JOINT LeftFoot
			{
				OFFSET 0.109806 -29.899420 -6.319000
				CHANNELS 3 Xrotation Yrotation Zrotation
				JOINT LeftToeBase
				{
					OFFSET 1.551100 -14.988700 20.535801
					CHANNELS 3 Xrotation Yrotation Zrotation
					JOINT LeftToe_End
					{
						OFFSET 0.221200 0.570800 13.248301
						CHANNELS 3 Xrotation Yrotation Zrotation
						End Site
						{
							OFFSET 0.000000 13.262435 0.000000
						}
					}
				}
			}
		}
	}
	JOINT RightUpLeg
	{
		OFFSET -13.839300 -7.904099 -1.463000
		CHANNELS 3 Xrotation Yrotation Zrotation
		JOINT RightLeg
		{
			OFFSET 0.109694 -34.073219 4.093300
			CHANNELS 3 Xrotation Yrotation Zrotation
			JOINT RightFoot
			{
				OFFSET -0.109694 -29.899384 -6.319200
				CHANNELS 3 Xrotation Yrotation Zrotation
				JOINT RightToeBase
				{
					OFFSET -1.551100 -14.988700 20.535801
					CHANNELS 3 Xrotation Yrotation Zrotation
					JOINT RightToe_End
					{
						OFFSET -0.221200 0.570900 13.248299
						CHANNELS 3 Xrotation Yrotation Zrotation
						End Site
						{
							OFFSET 0.000000 13.262440 0.000000
						}
					}
				}
			}
		}
	}
}
MOTION
Frames: 6
Frame Time: 0.033333
-4.430901 77.157875 -5.480612 -0.224915 0.015290 -1.037436 18.650921 -1.669839 0.896896 21.904912 -1.086877 1.366668 14.390483 -1.244416 1.209332 2.739009 -0.313561 -0.324873 -21.177751 2.709367 -3.354215 -0.000000 -0.000000 -0.000000 20.293469 -17.912460 8.168484 -34.482353 -18.922815 -39.116084 -2.277680 -51.499783 -20.033102 -54.064981 -16.920839 -17.599721 0.753394 9.660386 -26.983593 0.565257 2.409294 -26.403976 0.630217 1.062566 -31.730177 0.000001 -0.000003 0.000000 38.187332 10.427898 -16.332429 2.647306 25.389514 15.552153 0.846981 20.798018 14.861969 -0.000000 0.000000 -0.000000 18.060989 12.144921 -8.242264 -35.694470 15.920314 43.971764 -35.939390 57.650219 36.718851 -16.608887 -3.759706 24.587604 41.028878 -0.150245 20.267085 5.266748 -22.584543 -19.419886 4.857919 -13.960376 -21.773325 0.000000 0.000000 0.000001 18.419951 -0.011646 40.500682 -3.844763 9.145040 33.766338 -5.603828 12.076573 14.292959 0.000002 -0.000000 -0.000002 -31.426681 2.347050 31.704034 43.275881 0.086461 -8.408862 -10.553134 -6.826695 -14.265161 -2.772013 -12.883363 -1.581865 0.000000 0.000000 0.000000 -36.537390 -12.926093 -19.825686 45.377338 -4.498832 -5.181666 -9.476530 2.752136 15.176296 -7.029580 9.191884 9.860261 0.000000 0.000000 0.000000 
-4.596740 76.956093 -4.962523 -0.225198 0.015542 -1.010693 18.623704 -1.298448 1.150066 21.858905 -0.856108 1.440799 14.345699 -0.997523 1.303877 2.766081 -0.382528 -0.208106 -21.241467 3.003078 -3.633800 -0.000004 0.000000 -0.000000 20.408339 -17.860040 8.517769 -34.525408 -19.114353 -39.252981 -2.475863 -52.001331 -20.226178 -53.745533 -17.412720 -18.045773 0.739218 9.632760 -26.653893 0.512901 2.300922 -25.129921 0.600726 0.959288 -30.456691 -0.000000 -0.000000 0.000000 37.997039 10.178103 -16.401601 2.600799 25.072655 15.494971 0.790554 20.479982 14.817353 -0.000000 0.000001 0.000000 18.059775 12.159571 -8.224931 -35.627841 15.410430 43.163773 -36.379667 57.995840 37.238338 -16.654940 -3.893636 23.652324 40.873792 0.029447 20.345392 5.249297 -22.341798 -19.368934 4.846384 -13.715315 -21.727931 -0.000000 0.000000 -0.000001 18.404669 0.006286 40.251797 -3.857953 9.164609 33.519539 -5.609645 12.099068 14.045248 -0.000002 -0.000003 0.000001 -32.989691 1.445492 31.258029 41.685970 -3.844692 -8.224552 -8.802813 -6.547534 -14.051396 -3.254545 -12.883367 -1.581869 0.000000 0.000000 -0.000000 -37.083132 -13.028503 -19.804671 45.953311 -3.405173 -5.088989 -9.475833 2.855353 14.611793 -7.437396 9.108679 9.431760 0.000000 -0.000001 0.000000 
-4.662003 76.733437 -4.341506 -0.225593 0.017608 -0.976719 18.550855 -0.901554 1.360548 21.778249 -0.601970 1.502896 14.264543 -0.726236 1.389128 2.774136 -0.453685 -0.048332 -21.338797 3.232616 -4.035405 -0.000002 -0.000000 0.000000 20.564774 -17.791313 8.990418 -34.495918 -19.076261 -39.233314 -2.611170 -52.390136 -20.360207 -53.996689 -17.536738 -18.714017 0.724881 9.604411 -26.316787 0.473554 2.215163 -24.131273 0.577454 0.878544 -29.458394 -0.000000 -0.000000 -0.000000 37.802280 9.922913 -16.473125 2.552888 24.748647 15.436600 0.732608 20.154802 14.771688 -0.000001 0.000000 0.000001 18.015324 12.236996 -7.926762 -35.265967 15.125351 42.051921 -36.977019 58.465914 37.940690 -16.820900 -4.037546 22.249684 40.726895 0.199238 20.419904 5.232592 -22.112246 -19.320732 4.835283 -13.483537 -21.685019 0.000000 0.000000 -0.000003 18.390288 0.023285 40.016398 -3.870364 9.183188 33.286114 -5.615029 12.120344 13.810938 0.000002 -0.000002 0.000002 -34.145048 0.168292 30.392979 40.028563 -6.150852 -8.007086 -6.918264 -6.814790 -13.993140 -3.686003 -12.882057 -1.581783 -0.000000 -0.000000 -0.000000 -37.547148 -13.049049 -19.805119 46.669467 -2.474204 -5.119293 -9.780742 2.927791 14.284602 -7.842369 9.047812 9.098724 0.000000 0.000001 -0.000001 
-4.549247 76.478806 -3.600692 -0.226749 0.018663 -0.955495 18.436100 -0.493359 1.512707 21.665556 -0.331145 1.538438 14.149927 -0.439963 1.451117 2.772956 -0.512668 0.144160 -21.480842 3.379347 -4.391394 0.000001 -0.000000 0.000000 20.727336 -17.710153 9.489912 -34.401084 -18.884703 -39.133169 -2.682023 -52.653047 -20.431602 -54.688580 -17.541273 -19.402933 0.710843 9.576191 -25.982222 0.446765 2.154396 -23.428360 0.559785 0.822310 -28.755701 0.000001 0.000001 -0.000000 37.608784 9.669853 -16.544967 2.505023 24.427092 15.378736 0.674837 19.832037 14.726318 -0.000002 0.000001 -0.000001 17.952228 12.395354 -7.447849 -34.706411 15.015283 40.790791 -37.629254 58.968145 38.704237 -17.034932 -4.086996 20.502771 40.590090 0.356948 20.489593 5.216935 -21.898754 -19.275870 4.824835 -13.267989 -21.645093 -0.000000 0.000000 -0.000001 18.377082 0.039237 39.797480 -3.881922 9.200630 33.069044 -5.619999 12.140270 13.593048 0.000001 0.000002 -0.000000 -34.748533 -1.307049 29.575600 39.178908 -4.614736 -7.814565 -5.263881 -9.155227 -14.682760 -4.008000 -12.880302 -1.581661 0.000000 -0.000000 -0.000000 -37.830826 -12.736045 -19.990922 47.530682 -1.654423 -4.891788 -10.419451 2.983036 14.137248 -7.933054 9.050439 9.119037 -0.000000 0.000001 0.000000 
-4.197273 76.207504 -2.746328 -0.228656 0.017934 -0.948643 18.280050 -0.115605 1.576778 21.522040 -0.064441 1.536131 14.003600 -0.162612 1.477211 2.781900 -0.552467 0.329004 -21.640891 3.451035 -4.535642 0.000001 0.000000 0.000000 20.849661 -17.629463 9.878567 -34.260277 -18.588170 -38.976256 -2.704604 -52.804630 -20.455008 -55.510139 -17.692721 -19.817507 0.697466 9.548934 -25.659993 0.429798 2.114853 -22.973022 0.547283 0.786312 -28.300421 -0.000002 -0.000001 -0.000003 37.422248 9.426336 -16.614888 2.458569 24.117348 15.323058 0.618951 19.521164 14.682625 -0.000001 0.000000 0.000000 17.900205 12.626934 -6.945560 -34.100863 14.919073 39.726334 -38.192738 59.389752 39.361339 -17.147132 -3.956824 18.742944 40.465234 0.500507 20.553414 5.202498 -21.704208 -19.235001 4.815173 -13.071555 -21.608676 0.000001 -0.000000 0.000002 18.364956 0.053699 39.597970 -3.892284 9.216412 32.871187 -5.624447 12.158308 13.394421 0.000002 0.000001 0.000001 -35.097883 -2.230907 29.015012 39.297982 -2.153828 -7.817262 -4.383462 -11.253990 -15.355438 -4.177445 -12.879982 -1.581616 0.000000 -0.000000 -0.000000 -37.876292 -12.105284 -20.331720 48.290930 -0.876817 -4.524464 -11.093236 2.991602 14.254151 -7.989008 9.071179 9.234062 0.000001 0.000000 -0.000001 
-3.696812 75.937225 -1.866815 -0.230886 0.016068 -0.953150 18.083327 0.181817 1.532379 21.348677 0.168883 1.491164 13.827213 0.074905 1.459704 2.810830 -0.575427 0.463651 -21.771822 3.482834 -4.379820 0.000002 0.000000 -0.000000 20.899861 -17.564248 10.048522 -34.098203 -18.232591 -38.757523 -2.706349 -52.876814 -20.458052 -56.120113 -18.128307 -19.723261 0.685167 9.523506 -25.360149 0.419095 2.089423 -22.681035 0.539347 0.763162 -28.008417 0.000002 0.000001 -0.000001 37.248519 9.199903 -16.680674 2.415089 23.829097 15.271311 0.566767 19.231880 14.641880 0.000000 -0.000001 0.000000 17.880015 12.898811 -6.559956 -33.574601 14.643647 39.231725 -38.565888 59.661163 39.795517 -16.999508 -3.641478 17.356043 40.354356 0.627763 20.610311 5.189526 -21.531680 -19.198902 4.806498 -12.897352 -21.576463 -0.000001 -0.000000 -0.000000 18.353463 0.065932 39.421038 -3.900952 9.229668 32.695576 -5.628218 12.174001 13.218208 0.000000 -0.000001 0.000001 -35.411901 -2.249656 28.653825 40.205909 -1.857608 -7.900762 -4.578517 -10.972200 -15.452405 -4.208340 -12.880829 -1.581684 -0.000000 0.000001 -0.000000 -37.892155 -11.591874 -20.819451 48.935242 0.141592 -4.182096 -11.722209 2.944600 14.405185 -8.080798 9.094550 9.360238 0.000000 0.000001 -0.000001 
